# Blender v2.93.4 OBJ File: ''
# www.blender.org
mtllib BigHouse.mtl
o Cube
v 5.058207 3.538156 -6.929694
v 5.058207 -3.538156 -6.929694
v 5.058207 3.538156 6.929694
v 5.058207 -3.538156 6.929694
v -5.058207 3.538156 -6.929694
v -5.058207 -3.538156 -6.929694
v -5.058207 3.538156 6.929694
v -5.058207 -3.538156 6.929694
v -5.058207 -3.538156 0.000000
v 5.058207 10.159352 0.000000
v -5.058207 10.159352 0.000000
v 5.058207 -3.538156 0.000000
v -5.058207 -3.538156 3.464847
v 5.058207 6.929825 3.464847
v -5.058207 6.929825 3.464847
v 5.058207 -3.538156 3.464847
v -5.058207 6.929825 -3.464847
v 5.058207 -3.538156 -3.464847
v -5.058207 -3.538156 -3.464847
v 5.058207 6.929825 -3.464847
v -5.058207 5.233990 1.732423
v 5.058207 -3.538156 1.732423
v -5.058207 -3.538156 1.732423
v 5.058207 5.233990 1.732423
v -5.058207 -3.538156 -1.732423
v 5.058207 5.233990 -1.732423
v -5.058207 5.233990 -1.732423
v 5.058207 -3.538156 -1.732423
v 5.058207 0.947265 -6.929694
v -5.058207 0.947265 6.929694
v 5.058207 0.947265 6.929694
v -5.058207 0.947265 -6.929694
v 5.058207 5.144205 0.000000
v -5.058207 5.144205 0.000000
v -5.058207 3.097123 3.464847
v 5.058207 3.097123 3.464847
v 5.058207 3.097123 -3.464847
v -5.058207 3.097123 -3.464847
v 5.058207 3.116104 1.732423
v -5.058207 2.022194 1.732423
v -5.058207 2.022194 -1.732423
v 5.058207 3.116104 -1.732423
v 5.058207 0.202866 -6.929694
v 5.058207 0.202866 6.929694
v -5.058207 0.202866 -6.929694
v 5.058207 3.703283 0.000000
v -5.058207 3.703283 0.000000
v -5.058207 1.995934 3.464847
v 5.058207 1.995934 3.464847
v 5.058207 1.995934 -3.464847
v -5.058207 1.995934 -3.464847
v 5.058207 2.011765 1.732423
v -5.058207 1.099400 1.732423
v -5.058207 1.099400 -1.732423
v 5.058207 2.011765 -1.732423
v -5.058207 0.202866 6.929694
v 6.720261 3.097123 -3.464847
v 6.720261 3.116104 -1.732423
v 6.720261 3.116104 1.732423
v 6.720261 3.097123 3.464847
v 6.720261 1.995934 3.464847
v 6.720261 1.995934 -3.464847
v 6.720261 2.011765 1.732423
v 6.720261 2.011765 -1.732423
v 5.945588 -3.538156 1.732423
v 5.945588 -3.538156 0.000000
v 5.945588 3.703283 0.000000
v 5.945588 2.011765 1.732423
v 5.945588 -3.538156 -1.732423
v 5.945588 2.011765 -1.732423
vt 0.625000 0.687500
vt 0.875000 0.687500
vt 0.875000 0.750000
vt 0.625000 0.750000
vt 0.533466 0.750000
vt 0.625000 1.000000
vt 0.533466 1.000000
vt 0.533466 0.187500
vt 0.625000 0.187500
vt 0.625000 0.250000
vt 0.533466 0.250000
vt 0.125000 0.687500
vt 0.375000 0.687500
vt 0.375000 0.750000
vt 0.125000 0.750000
vt 0.533466 0.687500
vt 0.625000 0.500000
vt 0.533466 0.500000
vt 0.533466 0.593750
vt 0.625000 0.593750
vt 0.625000 0.625000
vt 0.533466 0.625000
vt 0.125000 0.593750
vt 0.375000 0.593750
vt 0.375000 0.625000
vt 0.125000 0.625000
vt 0.533466 0.093750
vt 0.625000 0.093750
vt 0.625000 0.125000
vt 0.533466 0.125000
vt 0.875000 0.593750
vt 0.875000 0.625000
vt 0.533466 0.000000
vt 0.625000 0.000000
vt 0.625000 0.062500
vt 0.533466 0.062500
vt 0.533466 0.656250
vt 0.625000 0.656250
vt 0.125000 0.656250
vt 0.375000 0.656250
vt 0.875000 0.656250
vt 0.875000 0.500000
vt 0.875000 0.562500
vt 0.625000 0.562500
vt 0.125000 0.500000
vt 0.375000 0.500000
vt 0.375000 0.562500
vt 0.125000 0.562500
vt 0.533466 0.562500
vt 0.533466 0.156250
vt 0.625000 0.156250
vt 0.507167 0.687500
vt 0.507167 0.656250
vt 0.507167 0.656250
vt 0.507167 0.687500
vt 0.507167 0.125000
vt 0.507167 0.156250
vt 0.507167 0.062500
vt 0.507167 0.093750
vt 0.507167 0.625000
vt 0.507167 0.187500
vt 0.507167 0.500000
vt 0.507167 0.562500
vt 0.507167 0.593750
vt 0.507167 0.593750
vt 0.533466 0.593750
vt 0.507167 0.000000
vt 0.507167 0.250000
vt 0.507167 0.750000
vt 0.507167 1.000000
vt 0.375000 1.000000
vt 0.375000 0.187500
vt 0.375000 0.250000
vt 0.375000 0.656250
vt 0.507167 0.656250
vt 0.375000 0.093750
vt 0.375000 0.125000
vt 0.375000 0.000000
vt 0.375000 0.062500
vt 0.375000 0.156250
vt 0.375000 0.625000
vt 0.507167 0.562500
vt 0.533466 0.562500
vt 0.533466 0.656250
vt 0.533466 0.687500
vt 0.375000 0.593750
vt 0.507167 0.593750
vt 0.507167 0.625000
vn 0.0000 0.7146 0.6995
vn 0.0000 0.0000 1.0000
vn -1.0000 0.0000 0.0000
vn 0.0000 -1.0000 0.0000
vn 1.0000 0.0000 0.0000
vn 0.0000 0.0000 -1.0000
vn 0.0000 0.3318 -0.9433
vn 0.0000 0.7146 -0.6995
vn 0.0000 0.3318 0.9433
vn 0.0000 -1.0000 -0.0091
vn 0.0000 0.9999 -0.0110
vn 0.0000 -1.0000 0.0091
vn 0.0000 0.9999 0.0110
vn 0.0000 0.7155 0.6986
vn 0.0000 0.7155 -0.6986
usemtl Material
s off
f 14/1/1 15/2/1 7/3/1 3/4/1
f 31/5/2 3/4/2 7/6/2 30/7/2
f 38/8/3 17/9/3 5/10/3 32/11/3
f 13/12/4 16/13/4 4/14/4 8/15/4
f 36/16/5 14/1/5 3/4/5 31/5/5
f 32/11/6 5/10/6 1/17/6 29/18/6
f 42/19/5 26/20/5 10/21/5 33/22/5
f 25/23/4 28/24/4 12/25/4 9/26/4
f 40/27/3 21/28/3 11/29/3 34/30/3
f 26/20/7 27/31/7 11/32/7 10/21/7
f 30/33/3 7/34/3 15/35/3 35/36/3
f 39/37/5 24/38/5 14/1/5 36/16/5
f 23/39/4 22/40/4 16/13/4 13/12/4
f 24/38/8 21/41/8 15/2/8 14/1/8
f 1/17/8 5/42/8 17/43/8 20/44/8
f 6/45/4 2/46/4 18/47/4 19/48/4
f 29/18/5 1/17/5 20/44/5 37/49/5
f 41/50/3 27/51/3 17/9/3 38/8/3
f 10/21/9 11/32/9 21/41/9 24/38/9
f 9/26/4 12/25/4 22/40/4 23/39/4
f 33/22/5 10/21/5 24/38/5 39/37/5
f 35/36/3 15/35/3 21/28/3 40/27/3
f 34/30/3 11/29/3 27/51/3 41/50/3
f 20/44/1 17/43/1 27/31/1 26/20/1
f 19/48/4 18/47/4 28/24/4 25/23/4
f 37/49/5 20/44/5 26/20/5 42/19/5
f 49/52/10 52/53/10 63/54/10 61/55/10
f 47/56/3 34/30/3 41/50/3 54/57/3
f 48/58/3 35/36/3 40/27/3 53/59/3
f 46/60/5 33/22/5 39/37/5 52/53/5
f 54/57/3 41/50/3 38/8/3 51/61/3
f 43/62/5 29/18/5 37/49/5 50/63/5
f 42/19/2 55/64/2 64/65/2 58/66/2
f 56/67/3 30/33/3 35/36/3 48/58/3
f 53/59/3 40/27/3 34/30/3 47/56/3
f 55/64/5 42/19/5 33/22/5 46/60/5
f 45/68/6 32/11/6 29/18/6 43/62/6
f 49/52/5 36/16/5 31/5/5 44/69/5
f 51/61/3 38/8/3 32/11/3 45/68/3
f 44/69/2 31/5/2 30/7/2 56/70/2
f 4/14/2 44/69/2 56/70/2 8/71/2
f 19/72/3 51/61/3 45/68/3 6/73/3
f 16/13/5 49/52/5 44/69/5 4/14/5
f 6/73/6 45/68/6 43/62/6 2/46/6
f 52/53/2 22/40/2 65/74/2 68/75/2
f 23/76/3 53/59/3 47/56/3 9/77/3
f 8/78/3 56/67/3 48/58/3 13/79/3
f 22/40/5 52/53/5 49/52/5 16/13/5
f 2/46/5 43/62/5 50/63/5 18/47/5
f 25/80/3 54/57/3 51/61/3 19/72/3
f 22/40/4 12/25/4 66/81/4 65/74/4
f 13/79/3 48/58/3 53/59/3 23/76/3
f 9/77/3 47/56/3 54/57/3 25/80/3
f 18/47/5 50/63/5 55/64/5 28/24/5
f 62/82/5 57/83/5 58/66/5 64/65/5
f 63/54/5 59/84/5 60/85/5 61/55/5
f 37/49/11 42/19/11 58/66/11 57/83/11
f 36/16/2 49/52/2 61/55/2 60/85/2
f 52/53/6 39/37/6 59/84/6 63/54/6
f 50/63/6 37/49/6 57/83/6 62/82/6
f 55/64/12 50/63/12 62/82/12 64/65/12
f 39/37/13 36/16/13 60/85/13 59/84/13
f 69/86/5 70/87/5 67/88/5 66/81/5
f 66/81/5 67/88/5 68/75/5 65/74/5
f 28/24/6 55/64/6 70/87/6 69/86/6
f 46/60/14 52/53/14 68/75/14 67/88/14
f 12/25/4 28/24/4 69/86/4 66/81/4
f 55/64/15 46/60/15 67/88/15 70/87/15
