# Blender v2.93.4 OBJ File: ''
# www.blender.org
o Cube
v 2.272030 1.000000 -1.000000
v 2.272030 -1.000000 -1.000000
v 2.272030 1.000000 1.000000
v 2.272030 -1.000000 1.000000
v -2.272030 1.000000 -1.000000
v -2.272030 -1.000000 -1.000000
v -2.272030 1.000000 1.000000
v -2.272030 -1.000000 1.000000
v -2.272030 -1.000000 -0.500000
v -2.272030 -1.000000 0.000000
v -2.272030 -1.000000 0.500000
v 2.272030 1.564536 -0.500000
v 2.272030 2.091033 0.000000
v 2.272030 1.564536 0.500000
v -2.272030 1.564536 0.500000
v -2.272030 2.091033 0.000000
v -2.272030 1.564536 -0.500000
v 2.272030 -1.000000 0.500000
v 2.272030 -1.000000 0.000000
v 2.272030 -1.000000 -0.500000
v 2.272030 0.026076 -1.000000
v 2.272030 -0.938998 -1.000000
v -2.272030 -0.938998 1.000000
v -2.272030 0.026076 1.000000
v 2.272030 0.026076 1.000000
v 2.272030 -0.938998 1.000000
v -2.272030 0.026076 -1.000000
v -2.272030 -0.938998 -1.000000
v 2.272030 0.026076 -0.500000
v 2.272030 -0.938998 -0.500000
v 2.272030 0.026076 0.000000
v 2.272030 -0.938998 0.000000
v 2.272030 0.026076 0.500000
v 2.272030 -0.938998 0.500000
v -2.272030 0.026076 0.500000
v -2.272030 -0.938998 0.500000
v -2.272030 0.026076 0.000000
v -2.272030 -0.938998 0.000000
v -2.272030 0.026076 -0.500000
v -2.272030 -0.938998 -0.500000
v 2.186380 0.026076 -0.500000
v 2.186380 -0.938998 -0.500000
v 2.186380 0.026076 0.000000
v 2.186380 -0.938998 0.000000
v 2.186380 0.026076 0.500000
v 2.186380 -0.938998 0.500000
vt 0.875000 0.687500
vt 0.625000 0.750000
vt 0.625000 0.687500
vt 0.484609 1.000000
vt 0.484609 0.750000
vt 0.484609 0.187500
vt 0.625000 0.250000
vt 0.484609 0.250000
vt 0.375000 0.687500
vt 0.125000 0.750000
vt 0.125000 0.687500
vt 0.484609 0.687500
vt 0.484609 0.500000
vt 0.625000 0.500000
vt 0.484609 0.562500
vt 0.625000 0.562500
vt 0.484609 0.625000
vt 0.375000 0.500000
vt 0.125000 0.562500
vt 0.125000 0.500000
vt 0.375000 0.562500
vt 0.125000 0.625000
vt 0.375000 0.625000
vt 0.625000 0.000000
vt 0.484609 0.062500
vt 0.484609 0.000000
vt 0.625000 0.062500
vt 0.484609 0.125000
vt 0.625000 0.187500
vt 0.875000 0.500000
vt 0.875000 0.562500
vt 0.625000 0.625000
vt 0.875000 0.625000
vt 0.401276 0.125000
vt 0.375000 0.187500
vt 0.375000 0.125000
vt 0.401276 0.187500
vt 0.401276 0.062500
vt 0.375000 0.062500
vt 0.401276 0.000000
vt 0.375000 0.000000
vt 0.401276 0.625000
vt 0.401276 0.562500
vt 0.401276 0.562500
vt 0.401276 0.687500
vt 0.484609 0.687500
vt 0.401276 0.500000
vt 0.401276 0.250000
vt 0.375000 0.250000
vt 0.375000 0.750000
vt 0.401276 0.750000
vt 0.375000 1.000000
vt 0.401276 1.000000
vt 0.484609 0.625000
vt 0.401276 0.687500
vt 0.401276 0.625000
vt 0.484609 0.562500
vt 0.875000 0.750000
vt 0.625000 1.000000
vt 0.625000 0.125000
vn 0.0000 0.6630 0.7486
vn 0.0000 0.0000 1.0000
vn -1.0000 0.0000 0.0000
vn 0.0000 -1.0000 0.0000
vn 1.0000 0.0000 0.0000
vn 0.0000 0.0000 -1.0000
vn 0.0000 0.6630 -0.7486
vn 0.0000 0.6886 -0.7251
vn 0.0000 0.6886 0.7251
vn 0.0000 1.0000 0.0000
s off
f 15/1/1 3/2/1 14/3/1
f 3/2/2 24/4/2 25/5/2
f 39/6/3 5/7/3 27/8/3
f 18/9/4 8/10/4 11/11/4
f 33/12/5 3/2/5 25/5/5
f 5/7/6 21/13/6 27/8/6
f 1/14/5 29/15/5 21/13/5
f 12/16/5 31/17/5 29/15/5
f 31/17/5 14/3/5 33/12/5
f 2/18/4 9/19/4 6/20/4
f 20/21/4 10/22/4 9/19/4
f 19/23/4 11/11/4 10/22/4
f 7/24/3 35/25/3 24/26/3
f 15/27/3 37/28/3 35/25/3
f 37/28/3 17/29/3 39/6/3
f 5/30/7 12/16/7 1/14/7
f 17/31/8 13/32/8 12/16/8
f 16/33/9 14/3/9 13/32/9
f 38/34/3 9/35/3 10/36/3
f 37/28/3 40/37/3 38/34/3
f 36/38/3 10/36/3 11/39/3
f 35/25/3 38/34/3 36/38/3
f 23/40/3 11/39/3 8/41/3
f 24/26/3 36/38/3 23/40/3
f 32/42/5 18/9/5 19/23/5
f 29/15/2 42/43/2 30/44/2
f 30/44/5 19/23/5 20/21/5
f 34/45/6 45/46/6 33/12/6
f 22/47/5 20/21/5 2/18/5
f 21/13/5 30/44/5 22/47/5
f 28/48/6 2/18/6 6/49/6
f 27/8/6 22/47/6 28/48/6
f 34/45/5 4/50/5 18/9/5
f 33/12/5 26/51/5 34/45/5
f 40/37/3 6/49/3 9/35/3
f 39/6/3 28/48/3 40/37/3
f 26/51/2 8/52/2 4/50/2
f 25/5/2 23/53/2 26/51/2
f 43/54/5 46/55/5 44/56/5
f 41/57/5 44/56/5 42/43/5
f 31/17/4 41/57/4 29/15/4
f 33/12/4 43/54/4 31/17/4
f 30/44/10 44/56/10 32/42/10
f 32/42/10 46/55/10 34/45/10
f 15/1/1 7/58/1 3/2/1
f 3/2/2 7/59/2 24/4/2
f 39/6/3 17/29/3 5/7/3
f 18/9/4 4/50/4 8/10/4
f 33/12/5 14/3/5 3/2/5
f 5/7/6 1/14/6 21/13/6
f 1/14/5 12/16/5 29/15/5
f 12/16/5 13/32/5 31/17/5
f 31/17/5 13/32/5 14/3/5
f 2/18/4 20/21/4 9/19/4
f 20/21/4 19/23/4 10/22/4
f 19/23/4 18/9/4 11/11/4
f 7/24/3 15/27/3 35/25/3
f 15/27/3 16/60/3 37/28/3
f 37/28/3 16/60/3 17/29/3
f 5/30/7 17/31/7 12/16/7
f 17/31/8 16/33/8 13/32/8
f 16/33/9 15/1/9 14/3/9
f 38/34/3 40/37/3 9/35/3
f 37/28/3 39/6/3 40/37/3
f 36/38/3 38/34/3 10/36/3
f 35/25/3 37/28/3 38/34/3
f 23/40/3 36/38/3 11/39/3
f 24/26/3 35/25/3 36/38/3
f 32/42/5 34/45/5 18/9/5
f 29/15/2 41/57/2 42/43/2
f 30/44/5 32/42/5 19/23/5
f 34/45/6 46/55/6 45/46/6
f 22/47/5 30/44/5 20/21/5
f 21/13/5 29/15/5 30/44/5
f 28/48/6 22/47/6 2/18/6
f 27/8/6 21/13/6 22/47/6
f 34/45/5 26/51/5 4/50/5
f 33/12/5 25/5/5 26/51/5
f 40/37/3 28/48/3 6/49/3
f 39/6/3 27/8/3 28/48/3
f 26/51/2 23/53/2 8/52/2
f 25/5/2 24/4/2 23/53/2
f 43/54/5 45/46/5 46/55/5
f 41/57/5 43/54/5 44/56/5
f 31/17/4 43/54/4 41/57/4
f 33/12/4 45/46/4 43/54/4
f 30/44/10 42/43/10 44/56/10
f 32/42/10 44/56/10 46/55/10
