# Blender v2.93.4 OBJ File: ''
# www.blender.org
mtllib Home.mtl
o Cube
v 1.630985 1.000000 -1.000000
v 1.630985 -1.000000 -1.000000
v 1.630985 1.000000 1.000000
v 1.630985 -1.000000 1.000000
v -1.630985 1.000000 -1.000000
v -1.630985 -1.000000 -1.000000
v -1.630985 1.000000 1.000000
v -1.630985 -1.000000 1.000000
v -1.630985 -1.000000 0.000000
v 1.630985 1.857213 0.000000
v -1.630985 1.857213 0.000000
v 1.630985 0.195865 1.000000
v 1.630985 0.819692 -1.000000
v -1.630985 0.819692 1.000000
v 1.630985 0.819692 1.000000
v -1.630985 0.819692 -1.000000
v 1.630985 0.195865 -1.000000
v -1.630985 0.819692 0.000000
v 1.630985 -1.000000 -0.419637
v 1.630985 -1.000000 0.419637
v 1.131850 -1.000000 0.000000
v 1.810109 0.195865 0.661468
v 1.810109 -1.000000 0.709819
v 1.810109 1.857213 -0.000000
v -1.630985 0.195865 -1.000000
v -1.630985 0.195865 0.000000
v -1.630985 0.195865 1.000000
v 1.630985 0.195865 0.419637
v 1.630985 0.195865 -0.419637
v 1.630985 -0.950873 -1.000000
v 1.630985 -0.950873 1.000000
v -1.630985 -0.950873 -1.000000
v 1.630985 -0.950873 -0.419637
v -1.630985 -0.950873 1.000000
v -1.630985 -0.950873 0.000000
v 1.630985 -0.950873 0.419637
v 1.924601 -1.000000 -0.419637
v 1.924601 -1.000000 0.419637
v 1.924601 -0.950873 0.419637
v 1.924601 -0.950873 -0.419637
v 1.630985 -1.000000 0.709819
v 1.630985 0.819692 -1.000000
v 1.630985 1.000000 -1.000000
v 1.810109 0.819692 1.000000
v 1.630985 -1.000000 -0.709819
v 1.630985 0.195865 -0.419637
v 1.630985 -0.950873 -0.419637
v 1.810109 1.000000 1.000000
v 1.630985 1.000000 1.000000
v -1.630985 0.507779 0.000000
v -1.630985 0.507779 1.000000
v -1.630985 0.507779 -1.000000
v 1.630985 1.857213 0.000000
v 1.630985 -1.000000 1.000000
v 1.630985 -0.950873 1.000000
v 1.630985 -1.000000 -1.000000
v 1.630985 -0.950873 -1.000000
v 1.630985 0.819692 0.700987
v 1.630985 0.819692 0.652735
v 1.630985 0.195865 0.661468
v 1.630985 0.195865 0.709720
v 1.810109 -1.000000 0.419637
v 1.630985 0.819692 -0.652735
v 1.630985 0.819692 -0.700987
v 1.630985 0.195865 -0.709720
v 1.630985 0.195865 -0.661468
v 1.810109 -0.950873 0.419637
v 1.630985 0.531902 0.358442
v 1.630985 0.483655 0.367228
v 1.810109 0.195865 -0.419637
v 1.630985 0.483655 1.000000
v 1.630985 0.531902 1.000000
v 1.591640 0.507779 1.000000
v 1.630985 0.531902 -1.000000
v 1.630985 0.483655 -1.000000
v 1.591640 0.507779 -1.000000
v 1.630985 0.483655 -0.367228
v 1.630985 0.531902 -0.358442
v 1.810109 0.195865 0.419637
v 1.630985 0.483655 0.705866
v 1.630985 0.483655 0.657615
v 1.630985 0.531902 0.656939
v 1.630985 0.531902 0.705191
v 1.630985 0.483655 -0.657615
v 1.630985 0.483655 -0.705866
v 1.630985 0.531902 -0.705191
v 1.630985 0.531902 -0.656939
v 1.630985 0.819692 1.000000
v 1.630985 -0.950873 0.419637
v 1.630985 -1.000000 0.419637
v 1.630985 -1.000000 -0.709819
v 1.630985 -1.000000 0.709819
v 1.630985 0.195865 0.419637
v 1.630985 0.195865 -1.000000
v 1.630985 0.195865 1.000000
v 1.630985 -1.000000 -0.419637
v 1.630985 0.195865 0.661468
v 1.630985 0.195865 0.709720
v 1.630985 0.195865 -0.709720
v 1.630985 0.195865 -0.661468
v 1.630985 0.531902 0.358442
v 1.630985 0.483655 0.367228
v 1.630985 0.483655 -0.367228
v 1.630985 0.531902 -0.358442
v 1.630985 0.483655 0.705866
v 1.630985 0.483655 0.657615
v 1.630985 0.483655 -0.657615
v 1.630985 0.483655 -0.705866
v 1.630985 0.819692 0.652735
v 1.630985 0.819692 0.700987
v 1.630985 0.531902 0.705191
v 1.630985 0.531902 0.656939
v 1.630985 0.819692 -0.700987
v 1.630985 0.819692 -0.652735
v 1.630985 0.531902 -0.656939
v 1.630985 0.531902 -0.705191
v 1.630985 0.531902 -1.000000
v 1.630985 0.483655 -1.000000
v 1.630985 0.531902 1.000000
v 1.630985 0.483655 1.000000
v 1.810109 0.195865 0.709720
v 1.810109 -0.950873 -1.000000
v 1.810109 -0.950873 -0.709819
v 1.810109 0.171747 0.686103
v 1.810109 -1.000000 -0.419637
v 1.810109 -1.000000 -0.709819
v 1.810109 -0.950873 0.709819
v 1.810109 -0.950873 -0.419637
v 1.810109 0.195865 1.000000
v 1.810109 -0.950873 1.000000
v 1.810109 0.195865 -1.000000
v 1.810109 1.125725 -0.000000
v 1.810109 0.819692 -0.306033
v 1.810109 1.000000 -1.000000
v 1.810109 0.819692 -1.000000
v 1.810109 -1.000000 1.000000
v 1.810109 -1.000000 -1.000000
v 1.810109 0.819692 0.306033
v 1.810109 0.195865 0.661468
v 1.810109 0.195865 0.709720
v 1.810109 0.195865 -0.709720
v 1.810109 0.195865 -0.661468
v 1.810109 0.531902 0.358442
v 1.810109 0.483655 0.367228
v 1.810109 0.483655 1.000000
v 1.810109 0.531902 1.000000
v 1.810109 0.531902 -1.000000
v 1.810109 0.483655 -1.000000
v 1.810109 0.483655 -0.367228
v 1.810109 0.531902 -0.358442
v 1.810109 0.531902 0.705191
v 1.810109 0.483655 0.705866
v 1.810109 0.483655 0.657615
v 1.810109 0.531902 0.656939
v 1.810109 0.531902 -0.656939
v 1.810109 0.483655 -0.657615
v 1.810109 0.483655 -0.705866
v 1.810109 0.531902 -0.705191
v 1.810109 0.819692 0.652735
v 1.810109 0.819692 0.700987
v 1.810109 0.819692 -0.700987
v 1.810109 0.819692 -0.652735
v 1.810109 0.171747 -0.686103
v 1.810109 0.195865 -0.709720
v 1.810109 0.195865 -0.661468
v 1.810109 0.507779 0.338711
v 1.810109 0.531902 0.358442
v 1.810109 0.483655 0.367228
v 1.810109 0.507779 -0.338711
v 1.810109 0.483655 -0.367228
v 1.810109 0.531902 -0.358442
v 1.810109 0.483655 0.705866
v 1.810109 0.483655 0.657615
v 1.810109 0.483655 -0.657615
v 1.810109 0.483655 -0.705866
v 1.810109 0.819692 0.652735
v 1.810109 0.819692 0.700987
v 1.810109 0.531902 0.705191
v 1.810109 0.531902 0.656939
v 1.810109 0.819692 -0.700987
v 1.810109 0.819692 -0.652735
v 1.810109 0.531902 -0.656939
v 1.810109 0.531902 -0.705191
v 1.810109 0.531902 -1.000000
v 1.810109 0.483655 -1.000000
v 1.810109 0.531902 1.000000
v 1.810109 0.483655 1.000000
vt 0.625000 0.625000
vt 0.875000 0.625000
vt 0.875000 0.750000
vt 0.625000 0.750000
vt 0.602461 0.750000
vt 0.625000 1.000000
vt 0.602461 1.000000
vt 0.602461 0.125000
vt 0.625000 0.125000
vt 0.625000 0.250000
vt 0.602461 0.250000
vt 0.524483 0.750000
vt 0.381141 0.750000
vt 0.381141 0.750000
vt 0.524483 0.750000
vt 0.560457 0.703220
vt 0.524483 0.702693
vt 0.524483 0.702693
vt 0.560457 0.703220
vt 0.625000 0.500000
vt 0.602461 0.500000
vt 0.375000 0.543373
vt 0.375000 0.500000
vt 0.375000 0.500000
vt 0.375000 0.543373
vt 0.625000 0.625000
vt 0.625000 0.500000
vt 0.602461 0.000000
vt 0.625000 0.000000
vt 0.875000 0.500000
vt 0.563472 0.000000
vt 0.563472 0.125000
vt 0.125000 0.625000
vt 0.336746 0.625000
vt 0.375000 0.663254
vt 0.375000 0.706627
vt 0.375000 0.750000
vt 0.125000 0.750000
vt 0.566488 0.703441
vt 0.566488 0.663254
vt 0.566488 0.663254
vt 0.566488 0.703441
vt 0.125000 0.500000
vt 0.375000 0.586746
vt 0.563472 0.250000
vt 0.524483 0.250000
vt 0.563472 0.496985
vt 0.560457 0.500000
vt 0.524483 0.500000
vt 0.566488 0.586746
vt 0.566488 0.546559
vt 0.566488 0.546559
vt 0.566488 0.586746
vt 0.381141 0.586746
vt 0.381141 0.586746
vt 0.375000 0.586746
vt 0.381141 0.500000
vt 0.524483 0.500000
vt 0.381141 0.500000
vt 0.524483 0.709955
vt 0.560457 0.709920
vt 0.560457 0.709920
vt 0.524483 0.709955
vt 0.524483 1.000000
vt 0.381141 1.000000
vt 0.381141 0.125000
vt 0.524483 0.125000
vt 0.381141 0.250000
vt 0.381141 0.000000
vt 0.524483 0.000000
vt 0.560457 0.663254
vt 0.560457 0.663254
vt 0.381141 0.663254
vt 0.381141 0.663254
vt 0.375000 0.663254
vt 0.375000 0.000000
vt 0.375000 0.125000
vt 0.375000 0.250000
vt 0.375000 1.000000
vt 0.524483 0.663254
vt 0.524483 0.586746
vt 0.381141 0.586746
vt 0.524483 0.586746
vt 0.381141 0.663254
vt 0.375000 0.663254
vt 0.566488 0.703441
vt 0.566488 0.663254
vt 0.560457 0.540080
vt 0.560457 0.540080
vt 0.560457 0.500000
vt 0.566488 0.540098
vt 0.566488 0.500000
vt 0.566488 0.500000
vt 0.566488 0.540098
vt 0.602461 0.750000
vt 0.625000 0.750000
vt 0.560457 0.750000
vt 0.560457 0.750000
vt 0.375000 0.706627
vt 0.602461 0.540135
vt 0.602461 0.540135
vt 0.563472 0.753015
vt 0.563472 1.000000
vt 0.566488 0.750000
vt 0.602461 0.546195
vt 0.602461 0.546195
vt 0.524483 0.663254
vt 0.602461 0.500000
vt 0.566488 0.750000
vt 0.566488 0.546559
vt 0.602461 0.546195
vt 0.560457 0.540080
vt 0.560457 0.500000
vt 0.524483 0.500000
vt 0.381141 0.500000
vt 0.566488 0.663254
vt 0.560457 0.663254
vt 0.602461 0.540135
vt 0.566488 0.500000
vt 0.566488 0.540098
vt 0.381141 0.750000
vt 0.524483 0.750000
vt 0.602461 0.703805
vt 0.602461 0.703805
vt 0.566488 0.703441
vt 0.602461 0.540135
vt 0.602461 0.709865
vt 0.566488 0.709902
vt 0.566488 0.709902
vt 0.602461 0.709865
vt 0.602461 0.546195
vt 0.566488 0.546559
vt 0.524483 0.547307
vt 0.524483 0.540045
vt 0.524483 0.540045
vt 0.524483 0.547307
vt 0.375000 0.586746
vt 0.375000 0.586746
vt 0.381141 0.586746
vt 0.560457 0.540080
vt 0.602461 0.703805
vt 0.602461 0.703805
vt 0.560457 0.546780
vt 0.560457 0.546780
vt 0.566488 0.709902
vt 0.602461 0.709865
vt 0.602461 0.709865
vt 0.566488 0.709902
vt 0.524483 0.702693
vt 0.524483 0.709955
vt 0.560457 0.703220
vt 0.602461 0.750000
vt 0.625000 0.750000
vt 0.602461 0.500000
vt 0.560457 0.709920
vt 0.524483 0.540045
vt 0.524483 0.540045
vt 0.381141 0.663254
vt 0.375000 0.663254
vt 0.524483 0.547307
vt 0.560457 0.546780
vt 0.560457 0.546780
vt 0.524483 0.547307
vt 0.524483 0.702693
vt 0.560457 0.703220
vt 0.524483 0.586746
vt 0.560457 0.709920
vt 0.524483 0.709955
vt 0.375000 0.543373
vt 0.560457 0.586746
vt 0.566488 0.586746
vt 0.560457 0.586746
vt 0.560457 0.586746
vt 0.375000 0.750000
vt 0.560457 0.750000
vt 0.566488 0.540098
vt 0.566488 0.500000
vt 0.560457 0.500000
vt 0.566488 0.586746
vt 0.560457 0.586746
vt 0.566488 0.750000
vt 0.560457 0.750000
vt 0.602461 0.663254
vt 0.602461 0.586746
vt 0.609110 0.625000
vt 0.625000 0.500000
vt 0.625000 0.625000
vt 0.563472 0.660711
vt 0.563472 0.589289
vt 0.524483 0.663254
vt 0.560457 0.663254
vt 0.375000 0.706627
vt 0.381141 0.706627
vt 0.375000 0.750000
vt 0.381141 0.543373
vt 0.566488 0.750000
vt 0.375000 0.500000
vt 0.521468 0.543373
vt 0.521468 0.706627
vt 0.524483 0.710171
vt 0.524483 0.546675
vt 0.560457 0.663569
vt 0.566488 0.587090
vn 0.0000 0.7592 0.6508
vn 0.0000 0.0000 1.0000
vn -1.0000 0.0000 0.0000
vn 0.0000 0.0000 -1.0000
vn 0.0000 0.7592 -0.6508
vn 0.0000 -1.0000 -0.0000
vn 1.0000 0.0000 0.0000
vn 0.0000 1.0000 0.0000
vn 0.0000 -0.0146 0.9999
vn 0.0000 -0.1792 -0.9838
vn 0.0000 -0.0146 -0.9999
vn 0.0000 0.0146 0.9999
vn 0.0000 0.0146 -0.9999
vn 0.0000 0.0134 -0.9999
vn 0.0000 -0.0134 0.9999
vn 0.0000 -0.0134 -0.9999
vn 0.0000 0.0134 0.9999
vn 0.0000 0.1792 -0.9838
vn 0.0000 -0.1792 0.9838
vn 0.0000 0.1792 0.9838
usemtl Material
s off
f 10/1/1 11/2/1 7/3/1 3/4/1
f 15/5/2 3/4/2 7/6/2 14/7/2
f 18/8/3 11/9/3 5/10/3 16/11/3
f 12/12/2 31/13/2 55/14/2 95/15/2
f 81/16/2 60/17/2 97/18/2 106/19/2
f 16/11/4 5/10/4 1/20/4 13/21/4
f 45/22/2 2/23/2 56/24/2 91/25/2
f 1/20/2 10/1/2 53/26/2 43/27/2
f 14/28/3 7/29/3 11/9/3 18/8/3
f 1/20/5 5/30/5 11/2/5 10/1/5
f 51/31/3 14/28/3 18/8/3 50/32/3
f 9/33/6 21/34/6 20/35/6 41/36/6 4/37/6 8/38/6
f 112/39/6 101/40/6 167/41/6 179/42/6
f 6/43/6 2/23/6 45/22/6 19/44/6 21/34/6 9/33/6
f 50/32/3 18/8/3 16/11/3 52/45/3
f 25/46/4 52/45/4 76/47/4 75/48/4 17/49/4
f 19/44/6 20/35/6 21/34/6
f 78/50/2 87/51/2 115/52/2 104/53/2
f 19/44/4 33/54/4 40/55/4 37/56/4
f 30/57/2 17/49/2 94/58/2 57/59/2
f 61/60/2 80/61/2 105/62/2 98/63/2
f 31/13/2 12/12/2 27/64/2 34/65/2
f 35/66/3 26/67/3 25/46/3 32/68/3
f 32/68/4 25/46/4 17/49/4 30/57/4
f 34/69/3 27/70/3 26/67/3 35/66/3
f 69/71/2 81/16/2 106/19/2 102/72/2
f 20/35/2 36/73/2 89/74/2 90/75/2
f 8/76/3 34/69/3 35/66/3 9/77/3
f 6/78/4 32/68/4 30/57/4 2/23/4
f 9/77/3 35/66/3 32/68/3 6/78/3
f 4/37/2 31/13/2 34/65/2 8/79/2
f 28/80/7 36/73/7 33/54/7 29/81/7
f 29/81/2 33/54/2 47/82/2 46/83/2
f 39/84/7 38/85/7 37/56/7 40/55/7
f 33/54/8 36/73/8 39/84/8 40/55/8
f 20/35/6 19/44/6 37/56/6 38/85/6
f 36/73/2 20/35/2 38/85/2 39/84/2
f 82/86/2 68/87/2 101/40/2 112/39/2
f 75/48/2 85/88/2 108/89/2 118/90/2
f 86/91/2 74/92/2 117/93/2 116/94/2
f 3/4/2 15/5/2 88/95/2 49/96/2
f 71/97/2 12/12/2 95/15/2 120/98/2
f 41/36/2 20/35/2 90/75/2 92/99/2
f 64/100/2 86/91/2 116/94/2 113/101/2
f 17/49/2 75/48/2 118/90/2 94/58/2
f 12/12/2 71/97/2 73/102/2 51/103/2 27/64/2
f 10/1/2 3/4/2 49/96/2 53/26/2
f 73/102/2 72/104/2 15/5/2 14/7/2 51/103/2
f 26/67/3 50/32/3 52/45/3 25/46/3
f 52/45/4 16/11/4 13/21/4 74/92/4 76/47/4
f 27/70/3 51/31/3 50/32/3 26/67/3
f 87/51/2 63/105/2 114/106/2 115/52/2
f 28/80/2 29/81/2 46/83/2 93/107/2
f 68/87/2 69/71/2 102/72/2 101/40/2
f 13/21/2 1/20/2 43/27/2 42/108/2
f 71/97/2 72/104/2 73/102/2
f 74/92/4 75/48/4 76/47/4
f 15/5/2 72/104/2 119/109/2 88/95/2
f 63/105/9 87/51/9 155/110/9 162/111/9
f 118/90/8 108/89/8 175/112/8 185/113/8
f 57/59/4 94/58/4 131/114/4 122/115/4
f 69/71/10 68/87/10 143/116/10 144/117/10
f 64/100/8 63/105/8 162/111/8 161/118/8
f 116/94/6 117/93/6 184/119/6 183/120/6
f 95/15/2 55/14/2 130/121/2 129/122/2
f 82/86/11 59/123/11 159/124/11 154/125/11
f 113/101/9 116/94/9 183/120/9 180/126/9
f 94/58/4 118/90/4 185/113/4 131/114/4
f 63/105/2 64/100/2 113/101/2 114/106/2
f 58/127/12 83/128/12 151/129/12 160/130/12
f 115/52/13 114/106/13 181/131/13 182/132/13
f 66/133/6 65/134/6 141/135/6 142/136/6
f 59/123/8 58/127/8 160/130/8 159/124/8
f 114/106/6 113/101/6 180/126/6 181/131/6
f 47/82/2 96/137/2 125/138/2 128/139/2
f 65/134/14 85/88/14 157/140/14 141/135/14
f 109/141/12 112/39/12 179/42/12 176/142/12
f 84/143/15 66/133/15 142/136/15 156/144/15
f 111/145/11 110/146/11 177/147/11 178/148/11
f 61/60/6 60/17/6 139/149/6 140/150/6
f 60/17/16 81/16/16 153/151/16 139/149/16
f 49/96/2 88/95/2 44/152/2 48/153/2
f 110/146/6 109/141/6 176/142/6 177/147/6
f 117/93/4 42/108/4 135/154/4 184/119/4
f 80/61/17 61/60/17 140/150/17 152/155/17
f 108/89/15 99/156/15 164/157/15 175/112/15
f 90/75/4 89/74/4 67/158/4 62/159/4
f 100/160/14 107/161/14 174/162/14 165/163/14
f 106/19/17 97/18/17 22/164/17 173/165/17
f 46/83/2 47/82/2 128/139/2 70/166/2
f 98/63/16 105/62/16 172/167/16 121/168/16
f 96/137/6 91/25/6 126/169/6 125/138/6
f 103/170/18 104/53/18 171/171/18 170/172/18
f 84/143/2 77/173/2 103/170/2 107/161/2
f 60/17/2 61/60/2 98/63/2 97/18/2
f 66/133/2 84/143/2 107/161/2 100/160/2
f 72/104/2 83/128/2 111/145/2 119/109/2
f 19/44/2 45/22/2 91/25/2 96/137/2
f 85/88/2 65/134/2 99/156/2 108/89/2
f 2/23/2 30/57/2 57/59/2 56/24/2
f 74/92/2 13/21/2 42/108/2 117/93/2
f 77/173/2 78/50/2 104/53/2 103/170/2
f 33/54/2 19/44/2 96/137/2 47/82/2
f 80/61/2 71/97/2 120/98/2 105/62/2
f 4/37/2 41/36/2 92/99/2 54/174/2
f 58/127/2 59/123/2 109/141/2 110/146/2
f 65/134/2 66/133/2 100/160/2 99/156/2
f 83/128/2 58/127/2 110/146/2 111/145/2
f 31/13/2 4/37/2 54/174/2 55/14/2
f 59/123/2 82/86/2 112/39/2 109/141/2
f 36/73/2 28/80/2 93/107/2 89/74/2
f 121/168/7 172/167/7 187/175/7 129/122/7
f 152/155/7 153/151/7 154/125/7 151/129/7
f 156/144/7 157/140/7 158/176/7 155/110/7
f 152/155/7 140/150/7 139/149/7 153/151/7
f 156/144/7 142/136/7 141/135/7 157/140/7
f 160/130/7 151/129/7 154/125/7 159/124/7
f 162/111/7 155/110/7 158/176/7 161/118/7
f 147/177/7 158/176/7 157/140/7 148/178/7
f 143/116/7 154/125/7 153/151/7 144/117/7
f 155/110/7 150/179/7 149/180/7 156/144/7
f 151/129/7 146/181/7 145/182/7 152/155/7
f 131/114/7 185/113/7 175/112/7 164/157/7
f 167/41/7 138/183/7 176/142/7 179/42/7
f 184/119/7 135/154/7 180/126/7 183/120/7
f 138/183/7 133/184/7 132/185/7
f 135/154/7 134/186/7 24/187/7 132/185/7 133/184/7 181/131/7 180/126/7
f 138/183/7 167/41/7 166/188/7 169/189/7 171/171/7 133/184/7
f 79/190/7 168/191/7 173/165/7 22/164/7
f 23/192/7 127/193/7 130/121/7 136/194/7
f 126/169/7 123/195/7 128/139/7 125/138/7
f 62/159/7 67/158/7 127/193/7 23/192/7
f 182/132/7 181/131/7 133/184/7 171/171/7
f 178/148/7 177/147/7 44/152/7 186/196/7
f 137/197/7 122/115/7 123/195/7 126/169/7
f 165/163/7 174/162/7 170/172/7 70/166/7
f 123/195/7 163/198/7 165/163/7 70/166/7 128/139/7
f 166/188/7 168/191/7 79/190/7 70/166/7 170/172/7 169/189/7
f 67/158/7 79/190/7 22/164/7 124/199/7 127/193/7
f 122/115/7 131/114/7 164/157/7 163/198/7 123/195/7
f 127/193/7 124/199/7 121/168/7 129/122/7 130/121/7
f 22/164/7 121/200/7 124/199/7
f 164/157/7 165/201/7 163/198/7
f 167/41/7 168/202/7 166/188/7
f 170/172/7 171/203/7 169/189/7
f 138/183/7 132/185/7 24/187/7 48/153/7 44/152/7 177/147/7 176/142/7
f 86/91/13 64/100/13 161/118/13 158/176/13
f 102/72/8 106/19/8 173/165/8 168/191/8
f 74/92/8 86/91/8 158/176/8 147/177/8
f 72/104/2 71/97/2 145/182/2 146/181/2
f 104/53/6 115/52/6 182/132/6 171/171/6
f 53/26/1 49/96/1 48/153/1 24/187/1
f 85/88/6 75/48/6 148/178/6 157/140/6
f 107/161/8 103/170/8 170/172/8 174/162/8
f 68/87/8 82/86/8 154/125/8 143/116/8
f 119/109/6 111/145/6 178/148/6 186/196/6
f 92/99/6 90/75/6 62/159/6 23/192/6
f 93/107/6 46/83/6 70/166/6 79/190/6
f 81/16/6 69/71/6 144/117/6 153/151/6
f 75/48/4 74/92/4 147/177/4 148/178/4
f 42/108/4 43/27/4 134/186/4 135/154/4
f 105/62/8 120/98/8 187/175/8 172/167/8
f 87/51/8 78/50/8 150/179/8 155/110/8
f 55/14/2 54/174/2 136/194/2 130/121/2
f 99/156/8 100/160/8 165/163/8 164/157/8
f 77/173/6 84/143/6 156/144/6 149/180/6
f 97/18/8 98/63/8 121/168/8 22/164/8
f 83/128/8 72/104/8 146/181/8 151/129/8
f 78/50/19 77/173/19 149/180/19 150/179/19
f 71/97/6 80/61/6 152/155/6 145/182/6
f 43/27/5 53/26/5 24/187/5 134/186/5
f 88/95/2 119/109/2 186/196/2 44/152/2
f 101/40/20 102/72/20 168/191/20 167/41/20
f 89/74/4 93/107/4 79/190/4 67/158/4
f 54/174/6 92/99/6 23/192/6 136/194/6
f 91/25/6 56/24/6 137/197/6 126/169/6
f 120/98/2 95/15/2 129/122/2 187/175/2
f 56/24/4 57/59/4 122/115/4 137/197/4
